<?xml version="1.0" encoding="UTF-8"?>
<svg id="Layer_1" data-name="Layer 1" xmlns="http://www.w3.org/2000/svg" viewBox="0 0 1397.65 408.96">
  <defs>
    <style>
      .cls-1 {
        fill: #37cb38;
      }
    </style>
  </defs>
  <g>
    <path class="cls-1" d="M383.22,311.57c-24.67-25.46-37-56.5-37-92.7s12.33-66.84,37-92.7c24.67-25.86,57.29-38.99,97.48-38.99,24.67,0,44.96,3.58,60.87,11.14,15.92,7.16,27.85,14.72,35.81,22.68l-28.64,33.02c-17.51-18.7-40.18-28.25-68.43-28.25-24.27,0-44.16,9.15-60.08,27.05-16.31,17.9-24.27,39.39-24.27,65.25s7.96,47.74,23.87,65.65c15.52,18.3,35.81,27.45,60.48,27.45,32.23,0,56.1-9.95,71.22-29.44l27.45,28.25c-8.75,9.95-21.88,19.1-38.2,27.45-16.31,8.35-37.4,12.33-62.46,12.33-38.59,0-70.02-12.73-95.09-38.2Z"/>
    <path class="cls-1" d="M826.2,351.36l-87.53-214.84-72.41,177.05h66.44v37.8h-130.5l112.6-263.78h49.33l112.2,263.78h-50.13Z"/>
    <path class="cls-1" d="M913.13,127.36v-39.79h199.33v39.79h-199.33ZM913.13,349.37v-147.21h130.9v39.79h-81.96v107.42h-48.94Z"/>
    <path class="cls-1" d="M1353.4,87.58v38.59h-198.13v-38.59h198.13ZM1353.4,311.17v38.59h-198.13v-150.39h116.97v38.59h-74.4v73.21h155.56Z"/>
  </g>
  <g>
    <path class="cls-1" d="M153.95,365.2l-6.03-.9c-8.66-1.29-17.22-3.99-25.46-8-3.59-1.85-7.72-4.07-11.68-6.76l-2.71-1.85-2.73-2.04c-1.4-1.01-2.74-2.13-4.04-3.22l-1.18-.98c-6.28-5.25-12.32-11.62-18.5-19.49-5.07-6.42-9.82-13.77-14.53-22.46-4.06-7.45-7.7-15.66-10.83-24.4-3.24-9.11-5.64-17.48-7.35-25.61-1.92-8.89-3.24-17.75-3.94-26.31l-.46-6.7c-.1-1.5-.14-2.89-.17-4.29-.01-.72-.03-1.44-.06-2.18l-.06-2.59.03-4.96c.01-1.93.02-3.92.15-5.92.36-8.95,1.31-17.86,2.83-26.43,1.64-9.42,3.63-17.9,6.1-25.92,5.74-18.35,13.39-34.61,22.74-48.35,4.84-7.25,10.66-14.26,17.27-20.8,6.7-6.5,13.94-12.1,21.55-16.65,8.09-4.83,16.52-8.45,25.06-10.73,1.38-.44,2.88-.76,4.34-1.06.72-.15,1.44-.31,2.15-.48,1.59-.32,3.09-.54,4.58-.76.72-.1,1.44-.21,2.16-.32l1.15-.1c1.95-.16,3.93-.32,5.81-.43l5.47-.1,4.97.27,1.61,3.01c3.24,6.07,5.98,12.63,8.16,19.52,2.2,6.84,3.83,13.7,4.85,20.38l.84,5.39.15,3.44.19-.04.32,3.46c.28,2.96.42,5.9.53,8.43.2,2.5.16,5.08.12,7.57-.01.93-.03,1.87-.03,2.81.08,2.55-.09,5.15-.26,7.67-.06.91-.12,1.83-.17,2.75-.05.65-.08,1.23-.11,1.81-.06,1.16-.13,2.36-.3,3.59l-1.21,10.14c-.17,1.24-.39,2.39-.6,3.54l-.56,3.11.26-.17-1.71,7.77c-.1.45-.2.9-.32,1.35l-2.45,9.96c-.63,2.32-1.36,4.55-2.06,6.7-.37,1.13-.74,2.27-1.09,3.41l-1.62,5.01c-.4,1.21-.85,2.33-1.3,3.46l-.56,1.42c-1.25,3.15-2.48,6.27-3.77,9.37l-.74,1.81h.03s-3.13,7.43-3.13,7.43c-1.7,3.78-3.16,7.68-4.57,11.45-.83,2.2-1.65,4.4-2.52,6.59-.61,1.78-1.23,3.71-1.85,5.63-.37,1.14-.73,2.27-1.1,3.41-.19.62-.41,1.28-.63,1.95-.28.85-.56,1.71-.82,2.57l-1.24,4.61c-1.5,5.14-2.65,10.44-3.75,15.57l-.68,3.14-1.55,9.4c-.31,1.8-.49,3.57-.69,5.44-.14,1.32-.28,2.64-.46,3.97l-.28,2.33c-.05.45-.08.94-.1,1.44l-.43,6.72-.12-.09-.13,8.76c-.1,2.83-.02,5.56.06,8.45l.03,1.17c0,2.32.19,4.55.39,6.9.07.91.15,1.81.21,2.72.14,1.96.37,3.89.61,5.92.15,1.25.3,2.49.42,3.75.42,2.94.93,6.09,1.55,9.49l.38,1.98c.48,2.48.97,5.04,1.6,7.47.46,2.19,1,4.21,1.58,6.36.3,1.13.61,2.26.89,3.39l1.49,5.95ZM154.06,51.29c-.71.11-1.42.21-2.13.32-1.37.2-2.75.39-4.11.67-.66.16-1.43.33-2.21.49-1.37.29-2.66.56-3.88.95-8.11,2.18-16,5.56-23.59,10.09-7.19,4.3-14.04,9.6-20.37,15.74-6.29,6.23-11.83,12.9-16.46,19.83-9.01,13.25-16.39,28.95-21.94,46.69-2.38,7.75-4.32,15.98-5.91,25.14-1.47,8.29-2.39,16.92-2.74,25.65-.11,1.89-.13,3.72-.14,5.65l-.03,4.89.05,2.41c.03.74.05,1.49.06,2.24.03,1.3.06,2.59.15,3.98l.46,6.67c.67,8.25,1.96,16.83,3.82,25.47,1.65,7.86,3.98,15.97,7.12,24.8,3.02,8.43,6.53,16.34,10.43,23.51,4.54,8.38,9.1,15.43,13.95,21.57,5.91,7.52,11.66,13.58,17.58,18.54l1.19.99c1.27,1.06,2.47,2.06,3.74,2.98l2.66,1.99,2.59,1.77c3.67,2.5,7.59,4.6,10.95,6.33,6.53,3.18,13.32,5.48,20.2,6.82-.57-2.13-1.17-4.34-1.62-6.55-.65-2.46-1.16-5.13-1.66-7.71l-.39-2c-.64-3.53-1.16-6.75-1.61-9.9-.14-1.34-.28-2.55-.43-3.76-.24-2.03-.49-4.12-.64-6.24-.06-.87-.14-1.76-.21-2.64-.19-2.38-.4-4.83-.41-7.33l-.03-1.08c-.07-2.41-.14-4.88-.1-7.37-.65.04-1.3.02-1.95-.06-3.77-.48-6.92-3-8.31-6.43l-12.02-1.54c-2.21,2.97-5.88,4.62-9.66,4.14-2.76-.35-5.21-1.76-6.92-3.96-1.7-2.2-2.44-4.93-2.09-7.69.73-5.7,5.93-9.73,11.65-9.01,3.77.48,6.92,3,8.31,6.43l12.02,1.54c2.2-2.97,5.89-4.62,9.66-4.14.13.02.26.04.39.06l.07-.55c.18-1.31.31-2.56.44-3.82.2-1.88.4-3.83.74-5.82l1.57-9.55.71-3.28c1.13-5.24,2.3-10.65,3.85-15.95l1.24-4.61c.29-1,.6-1.92.9-2.84.21-.63.41-1.26.61-1.89.38-1.17.74-2.29,1.1-3.41.63-1.98,1.26-3.95,1.95-5.91.9-2.28,1.71-4.44,2.52-6.6.59-1.58,1.19-3.18,1.81-4.79l-20.41,8.72-4.61,13.01c1.7,2.35,2.19,5.42,1.2,8.23-.8,2.26-2.43,4.07-4.59,5.1-2.16,1.03-4.59,1.16-6.85.36-2.26-.8-4.07-2.43-5.1-4.59-1.03-2.16-1.16-4.59-.36-6.85.99-2.8,3.31-4.88,6.11-5.64l1.48-4.18-4.92,2.1c-.42,3.59-2.72,6.8-6.13,8.25-5.2,2.22-11.25-.2-13.48-5.41-2.22-5.21.2-11.25,5.41-13.48,3.41-1.46,7.32-.91,10.21,1.28l13.52-5.78.68-1.94,2.12.74,4.44-1.89-9.59-4.67c-2.52,1.42-5.63,1.57-8.31.26-2.15-1.05-3.77-2.87-4.55-5.13-.78-2.26-.63-4.69.42-6.85,1.04-2.15,2.87-3.76,5.13-4.54,2.26-.78,4.7-.63,6.84.41,2.68,1.31,4.48,3.84,4.92,6.71l17.5,8.53,14.51-6.2,1.09-2.65c1.27-3.08,2.5-6.17,3.72-9.26l.58-1.47c.4-1.01.81-2.01,1.16-3.07l1.6-4.95c.35-1.13.73-2.3,1.11-3.46.71-2.18,1.38-4.23,1.95-6.33l.92-3.74-26.36,17.05-9.39-13.49h-22.03l-2.42-12.93c-3.5-1.19-6.2-4.19-6.9-7.92-.51-2.74.07-5.5,1.65-7.8,1.57-2.3,3.94-3.84,6.68-4.35,2.73-.51,5.5.08,7.79,1.65,2.29,1.57,3.84,3.94,4.35,6.68.7,3.73-.73,7.51-3.58,9.88l.86,4.63h18.9l6.81,9.78,26.71-17.29.68-3.75c.2-1.07.4-2.13.55-3.2l1.21-10.15c.14-1.02.2-2.04.26-3.11.03-.63.07-1.26.12-1.88.05-.86.11-1.81.17-2.75.17-2.47.32-4.81.25-7.15,0-1.06.01-2.03.03-2.99.03-2.46.07-4.78-.11-7.1-.07-1.51-.14-3.11-.24-4.75l-15.45,2.99-7.59,11.38c1.68,3.3,1.52,7.33-.59,10.49-3.19,4.78-9.66,6.07-14.44,2.89-4.77-3.19-6.07-9.66-2.89-14.44,2.11-3.16,5.75-4.88,9.45-4.58l9.95-14.92,20.62-3.99v-.29s-.79-4.88-.79-4.88c-.97-6.37-2.53-12.9-4.63-19.43-2.05-6.49-4.63-12.65-7.65-18.34l-1.19-.07-5.13.1c-1.71.09-3.63.25-5.52.41l-.79.07ZM133.57,291.99l.16,1.11c.26,1.83,1.71,3.26,3.52,3.49,1.16.15,2.11-.26,2.69-.63l4.9-3.09-4.56-3.58c-.61-.48-1.28-.77-1.99-.86-1.84-.24-3.56.8-4.28,2.5l-.44,1.04ZM107.78,284.58c-2.04,0-3.81,1.52-4.07,3.59-.29,2.25,1.31,4.31,3.55,4.59,1.82.24,3.57-.79,4.28-2.5l.44-1.04-.16-1.12c-.26-1.83-1.71-3.26-3.52-3.49-.17-.02-.35-.03-.52-.03ZM125.65,237.55h-.93c-1.13,0-2.13.7-2.5,1.75-.24.67-.2,1.39.1,2.03.31.64.84,1.12,1.51,1.36.67.24,1.39.2,2.03-.1.64-.31,1.12-.84,1.36-1.51.37-1.04.03-2.22-.85-2.93l-.73-.59ZM108.74,224.34c-.51,0-1.03.1-1.51.31-2.01.86-2.95,3.19-2.09,5.2.86,2.01,3.19,2.95,5.2,2.09,1.6-.69,2.57-2.39,2.34-4.14l-.14-1.1-.7-.87c-.77-.96-1.93-1.48-3.1-1.48ZM121.74,196.14c-.29,0-.58.05-.87.15-.67.23-1.21.71-1.52,1.35-.31.64-.36,1.36-.13,2.03.23.67.71,1.21,1.35,1.52,1,.48,2.21.28,3.01-.51l.66-.65.1-.93c.13-1.12-.46-2.2-1.46-2.69-.37-.18-.76-.27-1.16-.27ZM117.85,141.55c-.25,0-.5.02-.76.07-1.08.2-2.02.81-2.64,1.72s-.85,2-.65,3.08c.33,1.79,1.85,3.15,3.69,3.31l1.12.1,1.02-.5c1.66-.81,2.58-2.63,2.25-4.42-.37-1.97-2.1-3.35-4.03-3.35ZM148.4,118.91c-1.34,0-2.64.65-3.4,1.8-1.26,1.88-.74,4.44,1.14,5.7,1.89,1.26,4.44.75,5.7-1.14,1.01-1.51.87-3.55-.33-4.94l-.74-.85-1.08-.36c-.42-.14-.86-.21-1.29-.21Z"/>
    <path class="cls-1" d="M176.2,364.54l-4.97-.27-1.61-3.01c-3.25-6.08-5.99-12.65-8.16-19.52-2.19-6.82-3.83-13.68-4.85-20.38l-.8-5.03-.53-5.27c-.39-3.09-.53-6.26-.66-9.33l-.05-1.05c-.08-1.02-.11-2.14-.13-3.27l-.06-3.88.33.06c-.1-.74-.23-2-.23-3.29-.08-2.56.09-5.16.26-7.67.06-.91.12-1.83.17-2.75.05-.65.08-1.22.11-1.79.06-1.17.13-2.37.31-3.61l1.21-10.13c.17-1.24.39-2.4.6-3.55l1.23-6.77c.33-1.87.64-3.58,1.1-5.3l.98-3.98h0l1.47-5.97c.63-2.33,1.36-4.57,2.07-6.73.37-1.12.73-2.25,1.09-3.38l1.62-5.01c.4-1.21.85-2.34,1.3-3.46l.56-1.42c1.25-3.15,2.48-6.27,3.77-9.37l3.85-9.24c1.7-3.78,3.16-7.69,4.58-11.47.82-2.19,1.64-4.39,2.51-6.57.63-1.81,1.25-3.76,1.88-5.71.35-1.11.71-2.22,1.07-3.33.19-.61.41-1.26.62-1.92.29-.86.57-1.73.83-2.6l1.28-4.78h0s.84-3.08.84-3.08h0c1.06-4,1.95-8.04,2.98-12.79l.7-3.23,3.19.85c.29.08.38.11.49.13,1.64.22,3.17-.71,3.81-2.22l.39-.93-.14-.99c-.23-1.58-1.46-2.84-3-3.09-.12,0-.23,0-.35-.02l-3.31-.31.48-3.29c.22-1.49.38-2.97.55-4.45.14-1.31.29-2.61.47-3.92l.28-2.33c.05-.43.07-.9.1-1.38l.61-10.57.07-4.86c.09-2.84.02-5.59-.06-8.5l-.03-1.11c0-2.3-.19-4.52-.38-6.86-.08-.92-.15-1.84-.22-2.77-.14-1.96-.37-3.89-.61-5.92-.15-1.25-.3-2.49-.42-3.75-.43-2.95-.95-6.19-1.55-9.49l-.36-1.87c-.48-2.52-.98-5.12-1.62-7.58-.46-2.18-1-4.21-1.58-6.36-.3-1.13-.61-2.26-.89-3.39l-1.48-5.95,6.02.9c8.66,1.29,17.22,3.99,25.46,8,3.58,1.85,7.71,4.07,11.67,6.76l2.71,1.85,2.72,2.04c1.4,1.01,2.75,2.14,4.05,3.23l1.16.97c6.29,5.26,12.33,11.63,18.5,19.49,5.07,6.42,9.82,13.77,14.53,22.46,4.06,7.45,7.7,15.66,10.83,24.4,3.24,9.09,5.64,17.47,7.35,25.61,1.92,8.9,3.24,17.75,3.94,26.31l.46,6.7c.1,1.5.14,2.89.17,4.29.01.72.03,1.44.06,2.18l.06,2.59-.03,5.07c-.01,1.89-.03,3.85-.15,5.81-.35,8.93-1.31,17.85-2.83,26.42-1.64,9.42-3.64,17.9-6.1,25.92-5.74,18.34-13.39,34.6-22.73,48.35-4.84,7.24-10.65,14.25-17.27,20.8-6.7,6.51-13.94,12.1-21.55,16.65-8.08,4.83-16.51,8.44-25.06,10.73-1.38.44-2.88.76-4.33,1.06-.72.15-1.44.3-2.16.48-1.59.32-3.08.54-4.57.76-.72.1-1.44.21-2.16.32l-1.15.1c-1.95.16-3.93.32-5.81.43l-5.47.1ZM175.12,358.17l1.19.07,5.13-.1c1.71-.09,3.63-.25,5.52-.41l.79-.07c.71-.11,1.42-.21,2.14-.32,1.37-.2,2.75-.39,4.1-.67.66-.16,1.43-.33,2.21-.49,1.36-.29,2.65-.56,3.87-.95,8.12-2.18,16.01-5.56,23.59-10.09,7.19-4.3,14.04-9.6,20.37-15.75,6.29-6.23,11.84-12.91,16.46-19.83,9.01-13.25,16.39-28.95,21.94-46.69,2.38-7.74,4.32-15.97,5.91-25.14,1.47-8.31,2.39-16.93,2.74-25.65.11-1.86.13-3.65.14-5.54l.03-5.01-.05-2.41c-.03-.74-.05-1.49-.06-2.24-.03-1.3-.06-2.59-.15-3.98l-.46-6.67c-.67-8.24-1.95-16.82-3.82-25.47-1.65-7.88-3.98-15.98-7.12-24.8-3.02-8.43-6.53-16.34-10.43-23.51-4.54-8.37-9.1-15.43-13.95-21.57-5.9-7.51-11.65-13.58-17.58-18.54l-1.18-.98c-1.28-1.07-2.48-2.07-3.76-2.99l-2.65-1.99-2.59-1.77c-3.68-2.5-7.6-4.61-10.95-6.33-6.53-3.18-13.32-5.48-20.19-6.82.57,2.13,1.17,4.34,1.62,6.55.65,2.5,1.18,5.2,1.68,7.82l.37,1.9c.62,3.43,1.16,6.74,1.61,9.9.14,1.35.29,2.55.43,3.76.24,2.03.49,4.12.64,6.24.06.89.14,1.79.21,2.68.19,2.36.4,4.8.4,7.28l.03,1.03c.08,2.88.17,5.86.07,8.83l-.17,7.27-.52,8.36c-.03.6-.07,1.2-.13,1.77l-.29,2.4c-.18,1.3-.32,2.55-.45,3.8-.07.62-.14,1.25-.21,1.87,2.31,1.03,4.16,2.92,5.15,5.28l13.81,1.76c2.12-2.79,5.62-4.33,9.17-3.87,2.64.34,4.99,1.68,6.62,3.79,1.63,2.11,2.34,4.72,2,7.36-.7,5.45-5.73,9.31-11.14,8.62-3.57-.46-6.56-2.82-7.9-6.05l-13.81-1.76c-1.72,2.26-4.34,3.7-7.17,3.92-.79,3.62-1.54,6.89-2.4,10.16l19.49,21.58,4.08-6.32c-1.6-3.11-1.48-6.92.47-9.94,2.98-4.61,9.16-5.94,13.77-2.97,2.24,1.44,3.78,3.67,4.34,6.27.56,2.6.07,5.26-1.37,7.5-1.95,3.02-5.36,4.7-8.87,4.52l-13.08,20.26c1.6,3.11,1.48,6.92-.47,9.94-1.44,2.23-3.67,3.77-6.27,4.33-2.6.56-5.26.07-7.5-1.37-2.23-1.44-3.77-3.67-4.33-6.27-.56-2.6-.08-5.27,1.37-7.5,1.95-3.02,5.33-4.69,8.87-4.52l3.43-5.31-17.11-18.94c-.18.54-.36,1.08-.52,1.61-.38,1.14-.72,2.23-1.07,3.33-.64,2.01-1.28,4.01-1.98,6-.9,2.27-1.7,4.42-2.51,6.57-1.45,3.87-2.95,7.88-4.7,11.78l-3.8,9.12c-1.28,3.08-2.5,6.17-3.72,9.26l-.58,1.47c-.4,1.01-.81,2.01-1.16,3.07l-1.6,4.95c-.35,1.13-.73,2.28-1.1,3.43-.55,1.69-1.08,3.31-1.55,4.92l25.72,1.6,1.35-1.9c-.91-2.59-.54-5.51,1.09-7.81,2.75-3.86,8.13-4.77,11.99-2.03,1.87,1.33,3.11,3.31,3.5,5.58.38,2.27-.14,4.54-1.47,6.42-1.63,2.29-4.26,3.6-7,3.6h-.01l-4.55,6.4-33.07-2.06-.39,1.58c-.41,1.54-.7,3.1-1,4.84l-1.24,6.81c-.2,1.07-.4,2.13-.55,3.21l-1.21,10.15c-.15,1.03-.2,2.05-.26,3.12-.03.63-.07,1.25-.12,1.87-.05.86-.11,1.81-.17,2.75-.17,2.47-.32,4.81-.25,7.15,0,.3.01.6.02.88l20.95,4.05,10.42,15.63c3.52-.22,6.94,1.4,8.93,4.39,1.48,2.21,2,4.87,1.48,7.48-.52,2.61-2.03,4.86-4.24,6.34-4.57,3.05-10.77,1.8-13.82-2.76-1.99-2.99-2.17-6.8-.61-9.94l-8.12-12.18-14.89-2.88v.25c.14,3.07.26,5.98.63,8.89l.52,5.17.78,4.87c.98,6.39,2.53,12.92,4.63,19.43,2.04,6.48,4.62,12.64,7.65,18.34ZM190.73,317.54l-.66.76c-1.07,1.24-1.19,3.05-.3,4.4,1.12,1.67,3.39,2.13,5.07,1.01,1.68-1.12,2.13-3.39,1.01-5.07-.9-1.35-2.61-1.93-4.18-1.42l-.95.31ZM202.2,237.78l.77.22c.93.28,1.94-.07,2.5-.86.36-.5.49-1.11.39-1.71-.1-.6-.43-1.13-.93-1.49-1.03-.73-2.47-.49-3.2.54-.55.78-.55,1.84.01,2.64l.46.66ZM205.9,203.95c-1.21,0-2.38.6-3.06,1.65-.53.82-.71,1.8-.5,2.75.21.95.77,1.77,1.59,2.3,1.7,1.1,3.96.61,5.06-1.09.88-1.36.73-3.17-.36-4.4l-.66-.75-.96-.3c-.36-.11-.73-.17-1.1-.17ZM226.29,176.03l.96.3c1.56.48,3.28-.12,4.16-1.48,1.09-1.69.61-3.96-1.09-5.05-1.7-1.1-3.96-.6-5.06,1.09-.88,1.36-.73,3.17.36,4.4l.67.75ZM224.73,145.51l.14,1c.23,1.63,1.52,2.9,3.13,3.11,2.04.27,3.84-1.17,4.09-3.16.13-.97-.14-1.93-.73-2.7-.6-.77-1.46-1.27-2.43-1.39-1.64-.22-3.17.71-3.81,2.22l-.39.92Z"/>
  </g>
</svg>