<?xml version="1.0" encoding="UTF-8"?>
<svg id="Layer_1" data-name="Layer 1" xmlns="http://www.w3.org/2000/svg" viewBox="0 0 674.44 752.65">
  <defs>
    <style>
      .cls-1 {
        fill: #37cb38;
      }
    </style>
  </defs>
  <path class="cls-1" d="M301.29,716.92l-12.78-1.9c-18.35-2.74-36.5-8.45-53.95-16.95-7.61-3.92-16.37-8.63-24.74-14.33l-5.74-3.93-5.78-4.33c-2.96-2.14-5.81-4.52-8.56-6.82l-2.49-2.07c-13.3-11.13-26.12-24.63-39.21-41.3-10.74-13.6-20.82-29.18-30.8-47.6-8.6-15.79-16.32-33.19-22.95-51.71-6.87-19.3-11.96-37.05-15.57-54.28-4.06-18.85-6.87-37.62-8.35-55.75l-.98-14.2c-.22-3.18-.29-6.13-.35-9.08-.03-1.53-.07-3.05-.12-4.61l-.12-5.48.07-10.51c.03-4.09.05-8.32.31-12.55.76-18.97,2.78-37.86,6-56.01,3.48-19.96,7.7-37.93,12.93-54.93,12.17-38.89,28.38-73.35,48.18-102.46,10.26-15.36,22.58-30.21,36.59-44.09,14.2-13.78,29.54-25.64,45.67-35.29,17.14-10.24,35.01-17.9,53.1-22.75,2.92-.93,6.11-1.6,9.19-2.25,1.52-.33,3.05-.65,4.56-1.01,3.38-.69,6.55-1.15,9.71-1.6,1.53-.22,3.05-.44,4.57-.68l2.43-.22c4.13-.34,8.32-.69,12.31-.9l11.6-.22,10.53.57,3.41,6.37c6.86,12.86,12.68,26.77,17.3,41.37,4.66,14.49,8.12,29.03,10.28,43.18l1.77,11.43.33,7.29.4-.08.69,7.33c.59,6.26.88,12.51,1.12,17.87.42,5.3.34,10.76.26,16.04-.03,1.98-.06,3.96-.06,5.95.17,5.41-.2,10.92-.56,16.25-.13,1.94-.26,3.88-.37,5.82-.11,1.39-.17,2.61-.24,3.83-.13,2.46-.27,5-.64,7.6l-2.57,21.49c-.37,2.62-.82,5.06-1.27,7.51l-1.2,6.59.56-.36-3.63,16.48c-.21.96-.42,1.91-.67,2.86l-5.18,21.1c-1.34,4.91-2.87,9.63-4.36,14.2-.78,2.41-1.57,4.81-2.32,7.23l-3.43,10.62c-.86,2.57-1.8,4.95-2.76,7.32l-1.19,3c-2.64,6.67-5.26,13.29-7.98,19.86l-1.57,3.84.06-.03-6.63,15.77c-3.61,8-6.7,16.27-9.69,24.27-1.75,4.66-3.49,9.33-5.34,13.96-1.3,3.77-2.61,7.85-3.91,11.94-.77,2.41-1.54,4.82-2.34,7.22-.4,1.31-.87,2.72-1.34,4.14-.6,1.81-1.2,3.62-1.73,5.45l-2.64,9.78c-3.19,10.89-5.61,22.12-7.95,32.99l-1.44,6.65-3.27,19.92c-.65,3.82-1.04,7.57-1.46,11.53-.29,2.8-.59,5.59-.97,8.41l-.6,4.94c-.11.94-.16,1.99-.22,3.04l-.91,14.24-.26-.2-.27,18.56c-.2,5.99-.04,11.78.13,17.91l.07,2.47c.02,4.91.41,9.63.82,14.63.16,1.92.32,3.84.45,5.76.29,4.16.77,8.24,1.29,12.56.32,2.64.63,5.28.9,7.94.9,6.23,1.98,12.9,3.28,20.12l.81,4.19c1.01,5.26,2.06,10.69,3.4,15.83.97,4.63,2.12,8.92,3.34,13.47.64,2.39,1.28,4.78,1.89,7.18l3.15,12.6ZM301.52,51.7c-1.5.23-3.01.45-4.52.67-2.91.42-5.83.83-8.71,1.41-1.39.34-3.04.69-4.68,1.04-2.9.61-5.63,1.19-8.22,2.01-17.18,4.61-33.91,11.78-49.99,21.39-15.24,9.12-29.76,20.35-43.17,33.36-13.33,13.2-25.08,27.35-34.87,42.01-19.09,28.07-34.72,61.35-46.5,98.95-5.05,16.42-9.15,33.85-12.53,53.28-3.11,17.58-5.07,35.86-5.81,54.36-.24,4.01-.27,7.88-.29,11.97l-.07,10.37.11,5.11c.06,1.56.1,3.15.13,4.75.06,2.74.12,5.48.32,8.44l.97,14.13c1.42,17.48,4.14,35.66,8.09,53.98,3.49,16.67,8.42,33.85,15.08,52.56,6.39,17.86,13.83,34.63,22.11,49.83,9.62,17.75,19.29,32.7,29.56,45.71,12.52,15.94,24.7,28.79,37.25,39.29l2.52,2.1c2.7,2.25,5.24,4.38,7.93,6.32l5.63,4.23,5.48,3.74c7.77,5.29,16.09,9.75,23.2,13.42,13.84,6.75,28.24,11.61,42.8,14.45-1.21-4.52-2.47-9.2-3.44-13.87-1.37-5.22-2.46-10.88-3.51-16.34l-.82-4.24c-1.35-7.49-2.46-14.31-3.41-20.98-.29-2.85-.6-5.41-.9-7.96-.51-4.29-1.05-8.73-1.35-13.22-.13-1.85-.29-3.72-.44-5.59-.41-5.04-.84-10.24-.86-15.53l-.07-2.3c-.14-5.1-.29-10.34-.21-15.61-1.37.09-2.74.04-4.12-.13-7.99-1.02-14.66-6.37-17.61-13.63l-25.48-3.26c-4.68,6.3-12.47,9.79-20.46,8.77-5.85-.75-11.05-3.72-14.66-8.39-3.61-4.66-5.18-10.45-4.44-16.29,1.55-12.07,12.56-20.63,24.69-19.1,7.99,1.02,14.66,6.37,17.6,13.63l25.48,3.26c4.67-6.3,12.49-9.79,20.46-8.78.27.04.55.08.82.13l.14-1.17c.38-2.77.66-5.43.94-8.09.42-3.99.86-8.12,1.57-12.33l3.34-20.23,1.5-6.95c2.39-11.1,4.87-22.58,8.15-33.79l2.64-9.78c.62-2.11,1.26-4.07,1.91-6.02.44-1.34.88-2.67,1.3-4.01.81-2.48,1.57-4.85,2.34-7.23,1.34-4.19,2.68-8.38,4.12-12.53,1.91-4.82,3.63-9.4,5.34-13.98,1.26-3.35,2.53-6.75,3.84-10.16l-43.26,18.48-9.77,27.57c3.6,4.97,4.65,11.49,2.54,17.43-1.7,4.78-5.15,8.62-9.73,10.8-4.57,2.19-9.72,2.46-14.51.76-4.78-1.7-8.62-5.15-10.8-9.73-2.18-4.58-2.45-9.73-.76-14.51,2.11-5.94,7.02-10.34,12.94-11.94l3.14-8.87-10.43,4.45c-.89,7.61-5.77,14.4-13,17.49-11.03,4.71-23.85-.43-28.56-11.46-4.71-11.04.43-23.85,11.46-28.56,7.23-3.09,15.51-1.92,21.63,2.71l28.65-12.24,1.44-4.1,4.49,1.57,9.4-4.01-20.32-9.89c-5.35,3.01-11.93,3.32-17.61.56-4.56-2.22-7.98-6.08-9.64-10.88-1.65-4.8-1.34-9.95.89-14.51,2.21-4.55,6.08-7.98,10.87-9.63,4.8-1.66,9.95-1.34,14.5.87,5.67,2.77,9.49,8.15,10.42,14.21l37.09,18.07,30.74-13.13,2.31-5.61c2.7-6.53,5.3-13.07,7.89-19.63l1.23-3.11c.85-2.13,1.71-4.25,2.46-6.51l3.39-10.49c.75-2.41,1.55-4.87,2.35-7.34,1.5-4.61,2.93-8.97,4.13-13.41l1.95-7.93-55.85,36.14-19.9-28.58h-46.69l-5.13-27.39c-7.42-2.51-13.14-8.87-14.63-16.78-1.08-5.8.16-11.66,3.49-16.53,3.33-4.87,8.36-8.14,14.16-9.22,5.79-1.08,11.66.16,16.52,3.49,4.86,3.33,8.14,8.35,9.22,14.15,1.48,7.91-1.56,15.91-7.58,20.93l1.83,9.8h40.06l14.43,20.73,56.61-36.63,1.44-7.94c.42-2.26.84-4.51,1.16-6.79l2.57-21.51c.3-2.17.42-4.31.54-6.59.07-1.33.15-2.67.25-3.99.1-1.83.23-3.83.36-5.83.35-5.24.69-10.19.53-15.15,0-2.25.03-4.3.06-6.34.07-5.21.14-10.13-.24-15.04-.14-3.2-.3-6.6-.52-10.07l-32.74,6.34-16.08,24.13c3.56,6.99,3.22,15.53-1.25,22.23-6.75,10.12-20.47,12.87-30.6,6.12-10.12-6.75-12.87-20.48-6.12-30.6,4.47-6.7,12.18-10.33,20.04-9.7l21.08-31.62,43.69-8.45-.03-.62-1.64-10.34c-2.07-13.5-5.36-27.34-9.81-41.18-4.35-13.74-9.8-26.81-16.22-38.86l-2.53-.14-10.86.2c-3.62.2-7.69.53-11.7.87l-1.68.14ZM258.1,561.78l.34,2.36c.56,3.87,3.63,6.92,7.45,7.4,2.45.32,4.47-.55,5.71-1.33l10.38-6.55-9.67-7.58c-1.29-1.01-2.71-1.62-4.22-1.81-3.91-.51-7.55,1.69-9.07,5.29l-.93,2.21ZM203.45,546.08c-4.31,0-8.07,3.22-8.63,7.61-.61,4.76,2.77,9.13,7.53,9.73,3.85.51,7.56-1.68,9.08-5.29l.93-2.2-.34-2.37c-.56-3.87-3.62-6.92-7.45-7.4-.37-.05-.74-.07-1.1-.07ZM241.31,446.42h-1.97c-2.39,0-4.52,1.49-5.31,3.7-.5,1.42-.42,2.94.22,4.3.65,1.36,1.78,2.38,3.2,2.88,1.41.5,2.94.43,4.3-.22,1.36-.65,2.38-1.79,2.88-3.21.78-2.21.07-4.71-1.79-6.21l-1.54-1.25ZM205.47,418.41c-1.09,0-2.18.21-3.21.65-4.26,1.82-6.25,6.77-4.43,11.03,1.82,4.26,6.76,6.25,11.02,4.42,3.4-1.45,5.44-5.06,4.96-8.78l-.3-2.34-1.49-1.84c-1.64-2.03-4.08-3.14-6.56-3.14ZM233.03,358.66c-.62,0-1.24.1-1.84.31-1.42.49-2.57,1.5-3.22,2.85-.66,1.36-.75,2.88-.27,4.3.49,1.42,1.5,2.57,2.86,3.22,2.12,1.03,4.68.59,6.38-1.08l1.4-1.38.22-1.97c.27-2.37-.97-4.66-3.08-5.69-.78-.38-1.61-.57-2.45-.57ZM224.78,242.96c-.53,0-1.07.05-1.6.15-2.29.43-4.27,1.72-5.58,3.64-1.31,1.92-1.8,4.23-1.37,6.52.71,3.79,3.92,6.68,7.82,7.01l2.38.2,2.16-1.06c3.51-1.72,5.47-5.57,4.76-9.36-.78-4.18-4.44-7.1-8.55-7.1ZM289.52,195c-2.85,0-5.58,1.39-7.21,3.82-2.66,3.99-1.58,9.41,2.41,12.07,4.01,2.67,9.42,1.58,12.07-2.41,2.14-3.21,1.85-7.52-.7-10.48l-1.56-1.81-2.28-.75c-.9-.3-1.82-.44-2.73-.44Z"/>
  <path class="cls-1" d="M348.43,715.53l-10.53-.57-3.41-6.37c-6.88-12.88-12.7-26.8-17.3-41.37-4.65-14.44-8.11-28.98-10.28-43.18l-1.7-10.67-1.12-11.17c-.83-6.54-1.12-13.27-1.39-19.77l-.1-2.23c-.17-2.16-.24-4.54-.28-6.92l-.13-8.22.7.13c-.21-1.57-.5-4.24-.5-6.97-.17-5.41.2-10.93.56-16.25.13-1.94.26-3.88.37-5.82.11-1.38.17-2.59.24-3.8.13-2.47.27-5.03.65-7.65l2.57-21.47c.37-2.63.82-5.08,1.27-7.52l2.61-14.35c.69-3.96,1.35-7.58,2.34-11.23l2.07-8.42h0l3.11-12.64c1.34-4.94,2.88-9.68,4.38-14.27.78-2.38,1.56-4.77,2.3-7.16l3.42-10.61c.86-2.57,1.8-4.95,2.76-7.33l1.19-3c2.64-6.67,5.26-13.29,7.98-19.86l8.15-19.58c3.61-8.01,6.7-16.29,9.7-24.3,1.74-4.65,3.48-9.3,5.32-13.92,1.33-3.84,2.65-7.97,3.98-12.11.75-2.35,1.5-4.71,2.27-7.05.4-1.29.86-2.68,1.32-4.07.6-1.83,1.21-3.66,1.75-5.51l2.72-10.12h0s1.77-6.53,1.77-6.53h0c2.25-8.49,4.14-17.04,6.32-27.11l1.47-6.85,6.77,1.8c.6.16.81.23,1.03.27,3.48.47,6.73-1.5,8.08-4.71l.83-1.97-.3-2.11c-.49-3.35-3.08-6.01-6.36-6.55-.25,0-.49-.01-.74-.04l-7.02-.65,1.03-6.98c.47-3.16.81-6.29,1.16-9.43.3-2.77.61-5.53.99-8.31l.6-4.94c.1-.9.15-1.91.21-2.93l1.3-22.4.15-10.31c.2-6.02.04-11.85-.13-18.02l-.07-2.36c-.02-4.88-.4-9.57-.81-14.53-.16-1.95-.32-3.91-.46-5.86-.29-4.16-.77-8.24-1.29-12.55-.32-2.64-.63-5.28-.9-7.94-.9-6.25-2.02-13.11-3.28-20.12l-.77-3.97c-1.03-5.33-2.08-10.84-3.44-16.05-.97-4.63-2.12-8.92-3.34-13.47-.64-2.39-1.28-4.78-1.89-7.18l-3.13-12.6,12.76,1.9c18.35,2.74,36.5,8.45,53.95,16.95,7.59,3.91,16.35,8.62,24.74,14.33l5.75,3.93,5.77,4.33c2.97,2.15,5.83,4.54,8.59,6.84l2.47,2.05c13.32,11.15,26.13,24.65,39.21,41.3,10.74,13.61,20.82,29.18,30.8,47.6,8.6,15.79,16.32,33.19,22.95,51.71,6.86,19.27,11.95,37.02,15.57,54.28,4.06,18.85,6.87,37.63,8.34,55.75l.98,14.2c.22,3.18.29,6.13.35,9.08.03,1.53.07,3.05.12,4.61l.12,5.5-.07,10.74c-.03,4.01-.06,8.15-.32,12.32-.75,18.93-2.77,37.82-5.99,56-3.48,19.97-7.71,37.94-12.93,54.92-12.16,38.87-28.37,73.33-48.18,102.46-10.25,15.35-22.58,30.21-36.6,44.09-14.2,13.79-29.55,25.64-45.66,35.29-17.12,10.24-34.99,17.89-53.1,22.75-2.92.93-6.1,1.6-9.18,2.25-1.53.32-3.06.64-4.57,1.01-3.37.69-6.54,1.14-9.69,1.6-1.53.22-3.06.43-4.58.68l-2.43.22c-4.13.34-8.32.69-12.31.9l-11.6.22ZM346.15,702.02l2.53.14,10.86-.2c3.62-.2,7.69-.53,11.7-.87l1.68-.14c1.5-.24,3.01-.45,4.53-.67,2.91-.42,5.82-.83,8.7-1.41,1.39-.34,3.04-.69,4.69-1.04,2.89-.61,5.62-1.19,8.21-2.01,17.2-4.61,33.92-11.79,49.99-21.39,15.23-9.12,29.75-20.34,43.17-33.37,13.34-13.2,25.09-27.36,34.88-42.01,19.1-28.09,34.73-61.36,46.49-98.95,5.05-16.41,9.15-33.85,12.53-53.28,3.12-17.6,5.07-35.89,5.8-54.36.24-3.94.27-7.73.3-11.73l.07-10.62-.11-5.11c-.06-1.56-.1-3.15-.13-4.75-.06-2.74-.12-5.48-.32-8.44l-.98-14.13c-1.42-17.47-4.14-35.66-8.09-53.98-3.5-16.69-8.43-33.87-15.08-52.56-6.39-17.86-13.83-34.63-22.11-49.83-9.62-17.74-19.29-32.69-29.56-45.71-12.51-15.92-24.69-28.77-37.25-39.28l-2.49-2.07c-2.71-2.26-5.26-4.39-7.96-6.35l-5.62-4.23-5.49-3.74c-7.79-5.3-16.1-9.76-23.2-13.42-13.83-6.75-28.23-11.61-42.8-14.45,1.21,4.52,2.47,9.2,3.44,13.87,1.39,5.3,2.49,11.03,3.56,16.57l.78,4.02c1.31,7.27,2.45,14.29,3.41,20.97.3,2.85.6,5.41.91,7.97.51,4.29,1.05,8.73,1.35,13.22.13,1.89.29,3.79.45,5.69.41,5.01.84,10.18.86,15.43l.06,2.19c.17,6.1.35,12.41.14,18.71l-.35,15.41-1.1,17.71c-.07,1.27-.14,2.54-.28,3.76l-.62,5.09c-.38,2.76-.67,5.41-.96,8.06-.15,1.32-.29,2.64-.45,3.97,4.9,2.18,8.82,6.2,10.91,11.18l29.26,3.74c4.48-5.91,11.91-9.18,19.43-8.2,5.6.71,10.58,3.57,14.03,8.03,3.45,4.46,4.96,10,4.24,15.59-1.47,11.55-12.14,19.72-23.62,18.27-7.56-.97-13.89-5.98-16.75-12.82l-29.26-3.74c-3.64,4.79-9.2,7.84-15.21,8.3-1.68,7.68-3.26,14.6-5.09,21.52l41.31,45.74,8.64-13.39c-3.39-6.59-3.14-14.67,1-21.07,6.31-9.77,19.41-12.59,29.18-6.29,4.74,3.06,8,7.78,9.19,13.3,1.19,5.51.16,11.16-2.9,15.9-4.14,6.4-11.37,9.95-18.79,9.57l-27.73,42.94c3.39,6.6,3.14,14.67-.99,21.07-3.06,4.74-7.78,8-13.29,9.19-5.51,1.19-11.16.15-15.89-2.91-4.74-3.05-8-7.77-9.19-13.29-1.19-5.51-.16-11.16,2.9-15.9,4.13-6.4,11.29-9.93,18.79-9.58l7.27-11.25-36.26-40.15c-.37,1.14-.75,2.28-1.1,3.42-.8,2.41-1.54,4.73-2.27,7.05-1.36,4.25-2.72,8.49-4.19,12.71-1.9,4.8-3.61,9.37-5.31,13.93-3.07,8.21-6.25,16.71-9.97,24.97l-8.05,19.34c-2.71,6.52-5.3,13.07-7.89,19.63l-1.23,3.11c-.85,2.13-1.71,4.25-2.46,6.51l-3.38,10.49c-.74,2.39-1.54,4.83-2.34,7.28-1.17,3.58-2.29,7.01-3.29,10.43l54.5,3.4,2.86-4.03c-1.92-5.48-1.15-11.68,2.31-16.55,5.82-8.19,17.22-10.12,25.42-4.3,3.97,2.82,6.6,7.02,7.41,11.82s-.3,9.63-3.11,13.6c-3.45,4.86-9.04,7.62-14.84,7.62h-.03l-9.64,13.56-70.08-4.36-.82,3.34c-.88,3.26-1.48,6.56-2.13,10.25l-2.63,14.44c-.42,2.26-.84,4.52-1.16,6.81l-2.57,21.51c-.31,2.18-.43,4.34-.55,6.62-.07,1.33-.14,2.65-.25,3.97-.1,1.83-.23,3.83-.36,5.83-.35,5.24-.69,10.19-.53,15.15,0,.63.02,1.26.05,1.86l44.39,8.59,22.08,33.12c7.46-.47,14.7,2.96,18.93,9.3,3.13,4.69,4.24,10.32,3.14,15.85-1.11,5.53-4.3,10.3-8.99,13.43-9.68,6.45-22.82,3.82-29.28-5.85-4.22-6.35-4.59-14.41-1.3-21.05l-17.2-25.8-31.55-6.1.03.53c.27,6.52.53,12.67,1.31,18.83l1.09,10.96,1.66,10.32c2.07,13.53,5.37,27.38,9.81,41.18,4.33,13.72,9.78,26.79,16.21,38.87ZM379.22,615.94l-1.4,1.61c-2.27,2.64-2.53,6.47-.63,9.33,2.37,3.55,7.19,4.51,10.75,2.14,3.55-2.37,4.52-7.19,2.15-10.75-1.9-2.86-5.54-4.08-8.86-3.01l-2.02.67ZM403.53,446.89l1.63.46c1.98.58,4.12-.16,5.29-1.81.75-1.06,1.05-2.35.83-3.63-.22-1.28-.92-2.4-1.98-3.15-2.18-1.55-5.23-1.03-6.78,1.15-1.17,1.65-1.16,3.9.03,5.59l.98,1.4ZM411.37,375.21c-2.57,0-5.04,1.27-6.48,3.49-1.12,1.74-1.5,3.81-1.06,5.84.43,2.02,1.63,3.76,3.37,4.88,3.59,2.33,8.39,1.29,10.72-2.3,1.86-2.88,1.54-6.72-.77-9.32l-1.41-1.58-2.04-.64c-.77-.24-1.55-.36-2.33-.36ZM454.58,316.03l2.03.63c3.31,1.03,6.95-.25,8.81-3.14,2.32-3.59,1.28-8.4-2.31-10.71-3.59-2.32-8.39-1.28-10.72,2.31-1.86,2.89-1.54,6.72.77,9.32l1.41,1.59ZM451.29,251.36l.3,2.12c.5,3.44,3.22,6.15,6.62,6.59,4.33.57,8.14-2.47,8.67-6.71.27-2.05-.29-4.08-1.56-5.72-1.27-1.64-3.09-2.68-5.15-2.94-3.47-.47-6.73,1.51-8.08,4.71l-.82,1.95Z"/>
</svg>